<svg width="20" height="20" viewBox="0 0 20 20" fill="none" xmlns="http://www.w3.org/2000/svg">
<path d="M11.6667 14.9999V4.99992C11.6667 4.55789 11.4912 4.13397 11.1786 3.82141C10.866 3.50885 10.4421 3.33325 10.0001 3.33325H3.33341C2.89139 3.33325 2.46746 3.50885 2.1549 3.82141C1.84234 4.13397 1.66675 4.55789 1.66675 4.99992V14.1666C1.66675 14.3876 1.75455 14.5996 1.91083 14.7558C2.06711 14.9121 2.27907 14.9999 2.50008 14.9999H4.16675" stroke="#008FCC" stroke-width="1.66667" stroke-linecap="round" stroke-linejoin="round"/>
<path d="M12.5 15H7.5" stroke="#008FCC" stroke-width="1.66667" stroke-linecap="round" stroke-linejoin="round"/>
<path d="M15.8334 15.0001H17.5001C17.7211 15.0001 17.9331 14.9123 18.0893 14.756C18.2456 14.5997 18.3334 14.3878 18.3334 14.1667V11.1251C18.3331 10.936 18.2684 10.7526 18.1501 10.6051L15.2501 6.98008C15.1721 6.88248 15.0733 6.80365 14.9608 6.74941C14.8482 6.69518 14.725 6.66693 14.6001 6.66675H11.6667" stroke="#008FCC" stroke-width="1.66667" stroke-linecap="round" stroke-linejoin="round"/>
<path d="M14.1667 16.6666C15.0871 16.6666 15.8333 15.9204 15.8333 14.9999C15.8333 14.0794 15.0871 13.3333 14.1667 13.3333C13.2462 13.3333 12.5 14.0794 12.5 14.9999C12.5 15.9204 13.2462 16.6666 14.1667 16.6666Z" stroke="#008FCC" stroke-width="1.66667" stroke-linecap="round" stroke-linejoin="round"/>
<path d="M5.83341 16.6666C6.75389 16.6666 7.50008 15.9204 7.50008 14.9999C7.50008 14.0794 6.75389 13.3333 5.83341 13.3333C4.91294 13.3333 4.16675 14.0794 4.16675 14.9999C4.16675 15.9204 4.91294 16.6666 5.83341 16.6666Z" stroke="#008FCC" stroke-width="1.66667" stroke-linecap="round" stroke-linejoin="round"/>
</svg>
